<svg width="32" height="32" viewBox="0 0 32 32" fill="none" xmlns="http://www.w3.org/2000/svg">
<g clip-path="url(#clip0)">
<path d="M29.8101 18.7708H26.5025V13.7808C26.5025 8.00586 21.8042 3.30737 16.0291 3.30737C10.2542 3.30737 5.55567 8.00586 5.55567 13.7808V18.771H2.24829V13.7808C2.24829 6.18213 8.43042 0 16.0291 0C23.6279 0 29.8101 6.18213 29.8101 13.7808V18.7708Z" fill="#80BBE6"/>
<path d="M5.13623 5.34961C3.32715 7.68164 2.24829 10.6074 2.24829 13.7808V18.771H5.55567V13.7808C5.55567 11.9866 6.00952 10.2966 6.80786 8.81885C5.62647 8.15332 5.02808 6.64307 5.13623 5.34961Z" fill="#76ACD4"/>
<path d="M13.1514 30.4949H6.81006C4.03613 30.4949 1.77954 28.2383 1.77954 25.4646V20.041C1.77954 19.7822 1.9895 19.5723 2.24829 19.5723C2.50708 19.5723 2.71704 19.7822 2.71704 20.041V25.4646C2.71704 27.7214 4.55322 29.5574 6.81006 29.5574H13.1514C13.4102 29.5574 13.6201 29.7673 13.6201 30.0261C13.6201 30.2852 13.4102 30.4949 13.1514 30.4949Z" fill="#BEBFC0"/>
<path d="M14.8958 32H11.4072C10.48 32 9.72852 31.2486 9.72852 30.3213V29.731C9.72852 28.804 10.48 28.0525 11.4072 28.0525H14.8958C15.8228 28.0525 16.5742 28.804 16.5742 29.731V30.3213C16.5742 31.2486 15.8228 32 14.8958 32Z" fill="#495059"/>
<path d="M7.38843 24.874H5.37891C4.54639 24.874 3.87158 24.1992 3.87158 23.3669V13.7549C3.87158 12.9226 4.54639 12.2478 5.37891 12.2478H7.38843C8.22071 12.2478 8.89551 12.9226 8.89551 13.7549V23.3669C8.89551 24.1992 8.22071 24.874 7.38843 24.874Z" fill="#495059"/>
<path d="M1.29614 22.6265L3.87158 23.2681V13.8538L1.29614 14.4954C0.901856 14.5938 0.625 14.9478 0.625 15.3542V21.7676C0.625 22.1738 0.901856 22.5281 1.29614 22.6265Z" fill="#7397DA"/>
<path d="M24.6699 24.874H26.6795C27.5117 24.874 28.1865 24.1992 28.1865 23.3669V13.7549C28.1865 12.9226 27.5117 12.2478 26.6795 12.2478H24.6699C23.8374 12.2478 23.1626 12.9226 23.1626 13.7549V23.3669C23.1626 24.1992 23.8374 24.874 24.6699 24.874Z" fill="#495059"/>
<path d="M30.7622 22.6265L28.1868 23.2681V13.8538L30.7622 14.4954C31.1565 14.5938 31.4334 14.9478 31.4334 15.3542V21.7676C31.4334 22.1738 31.1565 22.5281 30.7622 22.6265Z" fill="#7397DA"/>
<path d="M10.8452 4.68286C12.3748 3.80811 14.1445 3.30737 16.0291 3.30737C17.9138 3.30737 19.6836 3.80811 21.2129 4.68286L22.812 1.78857C20.8081 0.650635 18.4934 0 16.0291 0C13.5649 0 11.25 0.650635 9.24634 1.78857L10.8452 4.68286Z" fill="#7397DA"/>
<path d="M8.70801 24.0947C5.63965 22.3362 5.76001 15.5149 5.77661 12.2478H5.37891C4.54639 12.2478 3.87158 12.9226 3.87158 13.7549V23.3667C3.87158 24.1992 4.54639 24.874 5.37891 24.874H7.38843C7.95679 24.874 8.45118 24.5591 8.70801 24.0947Z" fill="#41464F"/>
<path d="M27.999 24.0947C24.9307 22.3362 25.051 15.5149 25.0676 12.2478H24.6699C23.8374 12.2478 23.1626 12.9226 23.1626 13.7549V23.3667C23.1626 24.1992 23.8374 24.874 24.6699 24.874H26.6795C27.2478 24.874 27.7424 24.5591 27.999 24.0947Z" fill="#41464F"/>
</g>
<defs>
<clipPath id="clip0">
<rect width="32" height="32" fill="white"/>
</clipPath>
</defs>
</svg>
